<?xml version="1.0" encoding="utf-8"?>
<!-- Generator: Adobe Illustrator 25.2.1, SVG Export Plug-In . SVG Version: 6.00 Build 0)  -->
<svg version="1.1" id="Layer_1" xmlns="http://www.w3.org/2000/svg" xmlns:xlink="http://www.w3.org/1999/xlink" x="0px" y="0px"
	 viewBox="0 0 180 48" style="enable-background:new 0 0 180 48;" xml:space="preserve">
<style type="text/css">
	.st0{fill:#fecaca;}
</style>
<path class="st0" d="M4.5,33c-0.3-0.2-0.7-0.5-0.9-0.8c-0.3-0.3-0.4-0.8-0.5-1.1c-0.1,0.5-0.4,0.7-0.8,0.7c0.2-0.4,0.2-0.6-0.1-0.9
	c-0.1-0.1-0.1-0.1-0.2-0.2c-1.2-0.9-1.5-2-1.2-3.4c0-0.1,0-0.2,0.1-0.3c0,0-0.1,0-0.1-0.1c-0.2,0.1-0.3,0.3-0.5,0.4
	c-0.1-0.4-0.1-0.8,0-1.2c0.2-0.8,0.2-1.5,0.1-2.3c-0.1-1.7,0.6-3,2-3.9c1.5-0.9,3-0.9,4.4,0C6.9,20,7,20.1,7.1,20.2
	c0.7-0.7,1.4-1.4,2.2-2.1c-0.7,0-1.4,0-2.1,0c0-0.4,0-0.8,0-1.2c1.4,0,2.7,0,4.1,0c0,1.3,0,2.6,0,3.9c-0.4,0-0.7,0-1.1,0
	c0-0.6,0-1.2,0-2C9.4,19.6,8.7,20.3,8,21c0.4,0.6,0.7,1.2,0.9,1.9C9,23.5,9,24,8.8,24.6c-0.1,0.2-0.1,0.4,0,0.7
	c0.2,0.6,0.3,1.3,0.2,2c0,0,0,0.1,0,0.1c-0.2-0.1-0.3-0.3-0.5-0.4c0,0,0,0-0.1,0.1c0,0.3,0.1,0.6,0.1,0.9c0.1,1.1-0.2,2-1.1,2.7
	c-0.1,0.1-0.2,0.2-0.3,0.3c-0.3,0.3-0.3,0.5-0.1,0.8c-0.4,0.1-0.8-0.2-0.9-0.7C6,32,5.5,32.7,4.5,33z M1.5,23.6
	c0,0.5,0.2,0.7,0.7,0.7c0.3,0,0.6-0.1,0.8-0.2c0.2-0.1,0.4-0.2,0.6-0.3c0.6,0,1.3,0,1.9,0c0.2,0,0.5,0.2,0.7,0.3
	c0.4,0.2,0.8,0.2,1.2,0c0.2-0.1,0.3-0.2,0.3-0.4c0.2-1.7-1.2-3.2-2.9-3.3C3,20.5,1.5,21.9,1.5,23.6z M6.5,25.2c-0.5,0.2-1,0-1.5-0.2
	c-0.2-0.1-0.5-0.1-0.7,0c-0.5,0.2-1,0.4-1.5,0.2c0.1,0.4,0.3,0.6,0.7,0.7c0.2,0.1,0.4,0.1,0.6-0.2c0.4-0.5,0.8-0.5,1.2,0
	c0.1,0.1,0.2,0.2,0.3,0.2C5.9,26,6.4,25.7,6.5,25.2z"/>
<path class="st0" d="M88.2,16.8c2.9,0,5.7-0.2,8.4,0.1c2.5,0.2,3.7,2.2,3.3,4.6c-0.2,1.4-1.1,2.2-2.5,2.7c0.2,0.1,0.3,0.2,0.4,0.2
	c2,0.7,2.9,1.9,2.9,3.9c0,1.9-1,3.3-3,4c-0.6,0.2-1.1,0.3-1.7,0.4c-2.6,0-5.2,0-7.8,0C88.2,27.3,88.2,22,88.2,16.8z M90,30.8
	c1.5,0,2.9,0,4.3,0c0.8,0,1.6-0.1,2.4-0.2c1.4-0.3,2.2-1.3,2.2-2.6c0-1.2-0.7-2.3-2.1-2.5c-2.2-0.3-4.5-0.3-6.8-0.4
	c0,1.9,0,3.6,0,5.2C89.9,30.5,90,30.6,90,30.8z M90,23.5c1.7,0,3.3,0,4.9,0c0.5,0,1.1-0.1,1.6-0.2c1.1-0.3,1.8-1.2,1.8-2.3
	c0-1.1-0.6-2.1-1.8-2.3c-2.1-0.2-4.3-0.2-6.4-0.4C90,20.1,90,21.7,90,23.5z"/>
<path class="st0" d="M152.1,32.6c0-5.4,0-10.6,0-16c2.9,0.1,5.8-0.1,8.6,0.4c4,0.7,6.4,4.4,6.1,8.5c-0.3,3.9-3.5,6.9-7.5,7.1
	C156.8,32.7,154.5,32.6,152.1,32.6z M153.9,30.8c1.8,0,3.5,0.1,5.2,0c3-0.1,5.4-2.4,5.8-5.5c0.4-2.9-1.4-5.7-4.2-6.6
	c-2.2-0.7-4.5-0.2-6.7-0.4C153.9,22.6,153.9,26.7,153.9,30.8z"/>
<path class="st0" d="M27.2,32.5c0-5.3,0-10.5,0-15.9c1.1,0,2.3,0,3.4,0c1.4,0,2.9,0,4.3,0.2c2.7,0.4,4.2,1.9,4.6,4.3
	c0.4,2.7-0.7,4.7-3.2,5.9c-0.1,0-0.1,0.1-0.3,0.2c0.6,0.9,1.2,1.8,1.8,2.7c0.6,0.9,1.2,1.7,1.8,2.6c-1.8,0.3-1.9,0.3-2.8-1.1
	c-0.7-1.1-1.4-2.3-2.2-3.4c-0.1-0.2-0.5-0.4-0.7-0.4c-1.6,0-3.1,0-4.8,0c0,1.7,0,3.3,0,5C28.4,32.5,27.8,32.5,27.2,32.5z M29.1,18.6
	c0,2.4,0,4.8,0,7c1.9,0,3.8,0.2,5.7,0c2-0.2,3-1.6,3-3.6c0-1.9-1-3.2-3-3.4C32.9,18.4,31,18.6,29.1,18.6z"/>
<path class="st0" d="M144.4,27.2c1.2,1.8,2.4,3.5,3.6,5.3c-1.5,0.4-1.9,0.3-2.7-0.9c-0.8-1.2-1.5-2.4-2.3-3.5
	c-0.1-0.2-0.4-0.5-0.6-0.5c-1.6,0-3.3,0-4.9,0c0,1.7,0,3.3,0,5c-0.6,0-1.2,0-1.8,0c0-5.3,0-10.5,0-16c2.7,0.1,5.4,0,8,0.3
	c2.5,0.3,3.9,2,4.2,4.4c0.3,2.6-0.8,4.7-3.1,5.7C144.7,27,144.6,27.1,144.4,27.2z M137.4,25.7c1.7,0,3.2,0,4.8,0
	c0.3,0,0.7-0.1,1-0.2c1.9-0.4,2.9-1.6,2.9-3.5c0-1.8-0.9-3.2-2.7-3.4c-2-0.3-4-0.2-6-0.3C137.4,20.9,137.4,23.3,137.4,25.7z"/>
<path class="st0" d="M45.5,25.4c0,1.9,0,3.6,0,5.5c3.1,0,6.1,0,9.2,0c0,0.6,0,1.1,0,1.7c-3.6,0-7.3,0-11,0c0-5.3,0-10.5,0-15.8
	c3.6,0,7.1,0,10.7,0c0,0.6,0,1.1,0,1.7c-2.9,0-5.9,0-8.9,0c0,1.8,0,3.5,0,5.3c2.6,0,5.2,0,7.9,0c0,0.6,0,1.1,0,1.7
	C50.8,25.4,48.2,25.4,45.5,25.4z"/>
<path class="st0" d="M115.5,30.8c0,0.7,0,1.1,0,1.7c-3.7,0-7.3,0-11,0c0-5.3,0-10.5,0-15.8c3.6,0,7.1,0,10.7,0c0,0.6,0,1.1,0,1.7
	c-3,0-5.9,0-8.9,0c0,1.8,0,3.5,0,5.3c2.6,0,5.2,0,7.9,0c0,0.6,0,1.1,0,1.7c-2.6,0-5.2,0-7.9,0c0,1.8,0,3.6,0,5.5
	C109.3,30.8,112.4,30.8,115.5,30.8z"/>
<path class="st0" d="M132.9,32.5c-1.9,0.2-1.9,0.1-2.6-1.4c-0.4-0.8-0.6-2-1.2-2.4c-0.6-0.4-1.7-0.1-2.6-0.1c-1.8,0-3.5,0-5.3,0
	c-0.5,0-0.7,0.1-0.9,0.6c-0.3,0.8-0.8,1.6-1.1,2.5c-0.3,0.8-0.7,1.1-1.5,1c-0.2,0-0.5,0-0.8,0c0.1-0.2,0.1-0.4,0.2-0.6
	c2.2-4.9,4.4-9.8,6.6-14.8c0.3-0.6,0.7-0.6,1.2-0.6c0.5,0,1-0.1,1.3,0.5c2.2,5,4.4,10,6.6,14.9C132.9,32.2,132.9,32.3,132.9,32.5z
	 M124.9,18.7c-1.2,2.8-2.3,5.4-3.5,8c2.4,0,4.7,0,7.1,0C127.3,24.1,126.1,21.5,124.9,18.7z"/>
<path class="st0" d="M74.2,25.6c0,2.3,0,4.6,0,6.9c-0.6,0-1.2,0-1.8,0c0-5.3,0-10.5,0-15.8c0.6,0,1.1,0,1.7,0c0,2.3,0,4.6,0,7
	c3.2,0,6.4,0,9.6,0c0-2.3,0-4.7,0-7.1c0.6,0,1.2,0,1.8,0c0,5.3,0,10.5,0,15.8c-0.5,0-1.1,0-1.7,0c0-2.3,0-4.6,0-6.9
	C80.6,25.6,77.4,25.6,74.2,25.6z"/>
<path class="st0" d="M179.7,18.1c-0.3,0.6-0.5,1.1-0.8,1.7c-1.6-0.9-3.3-1.4-5.1-1.3c-1.5,0.1-2.5,0.8-2.6,1.8
	c-0.2,1.1,0.5,2.1,2,2.6c1.4,0.5,2.8,0.9,4.1,1.4c1.5,0.6,2.5,1.5,2.8,3.2c0.3,1.9-0.6,3.5-2.4,4.3c-2.7,1.3-6.9,0.7-9-1.4
	c-0.2-0.2-0.3-0.5-0.2-0.7c0.1-0.4,0.4-0.8,0.6-1.2c1.5,1.2,3,2.1,4.9,2.2c0.9,0,1.8-0.1,2.6-0.4c0.8-0.2,1.4-0.9,1.4-1.8
	c0.1-0.9-0.3-1.7-1.1-2.1c-0.9-0.5-1.9-0.8-2.8-1.1c-1-0.4-2-0.7-2.9-1.1c-1.4-0.7-2.1-1.9-2-3.5c0-1.6,0.8-2.7,2.2-3.3
	C174.3,16.1,177,16.6,179.7,18.1z"/>
<path class="st0" d="M67.6,19.8c-1.6-0.9-3.3-1.4-5.1-1.2c-0.2,0-0.4,0-0.5,0.1c-1.2,0.2-2,0.9-2.1,1.7c-0.2,1,0.4,1.9,1.5,2.4
	c1,0.4,2,0.7,3,1.1c0.7,0.3,1.5,0.5,2.2,0.9c1.4,0.7,2.2,1.9,2.2,3.5c0,1.6-0.7,2.8-2.2,3.5c-2.3,1.2-4.7,1.1-7.1,0.1
	c-0.4-0.2-0.8-0.4-1.2-0.7c-1.5-0.9-1.5-1-0.5-2.6c0.2,0.1,0.4,0.3,0.6,0.4c1.8,1.3,3.7,1.9,5.9,1.6c1.6-0.2,2.5-1.1,2.5-2.4
	c0-1-0.6-1.7-1.4-2.1c-1-0.4-2.1-0.7-3.1-1.1c-0.9-0.3-1.8-0.6-2.6-1.1c-2.5-1.5-2.4-4.9,0.1-6.5c2.3-1.4,6.5-1.1,8.6,0.7
	c-0.1,0.3-0.3,0.7-0.5,1C67.8,19.4,67.7,19.6,67.6,19.8z"/>
<path class="st0" d="M16.3,32.5c-0.7,0-1.2,0-1.8,0c0-5.3,0-10.5,0-15.8c3.3,0,6.6,0,10,0c0,0.5,0,1.1,0,1.7c-2.7,0-5.4,0-8.2,0
	c0,1.9,0,3.7,0,5.6c2.4,0,4.8,0,7.3,0c0,0.6,0,1.1,0,1.7c-2.4,0-4.8,0-7.3,0C16.3,28,16.3,30.3,16.3,32.5z"/>
<path class="st0" d="M10.2,32c0.1,0.2,0.3,0.4,0.4,0.7c0.1-0.2,0.3-0.5,0.4-0.7c0,0,0,0,0.1,0c0,0.3,0,0.6,0,0.9c0,0,0,0-0.1,0
	c0-0.2,0-0.4,0-0.6c0,0,0,0-0.1,0c-0.1,0.2-0.2,0.4-0.4,0.6c-0.1-0.2-0.2-0.4-0.4-0.6c0,0,0,0-0.1,0c0,0.2,0,0.4,0,0.6
	c0,0,0,0-0.1,0C10.2,32.7,10.2,32.4,10.2,32C10.2,32.1,10.2,32.1,10.2,32z"/>
<path class="st0" d="M9.6,32.2c-0.1,0-0.2,0-0.3-0.1c0,0,0,0,0-0.1c0.2,0,0.5,0,0.7,0c0,0,0,0,0,0C9.9,32.2,9.8,32.2,9.6,32.2
	c0.1,0.3,0.1,0.5,0.1,0.8c0,0-0.1,0-0.1,0C9.6,32.8,9.6,32.5,9.6,32.2z"/>
</svg>
