<?xml version="1.0" encoding="utf-8"?>
<!-- Generator: Adobe Illustrator 25.2.1, SVG Export Plug-In . SVG Version: 6.00 Build 0)  -->
<svg version="1.1" id="Layer_1" xmlns="http://www.w3.org/2000/svg" xmlns:xlink="http://www.w3.org/1999/xlink" x="0px" y="0px"
	 viewBox="0 0 2166 486" style="enable-background:new 0 0 2166 486;" xml:space="preserve">
<style type="text/css">
	.st0{fill:#EEEEEE;}
	.st1{fill:#dc2626;}
</style>
<g>
	<path class="st0" d="M304.1,87.1h-63.7V48.3h168.9v38.8h-63.3v354.8h-41.9V87.1z"/>
	<path class="st0" d="M568.3,251.3h-88.3v152.1h100.2l-5.7,38.5H438.2V48.3h135.2v38.8h-93.3v125.7h88.3V251.3z"/>
	<path class="st0" d="M769.8,328.9v13.3c0,50-9,104.8-80.2,104.8c-68.1,0-79.8-48.3-79.8-106.1V140.8c0-63,27-97.7,80.3-97.7
		c66,0,77.9,46.9,77.9,98.4v15.4h-42.5v-18.5c0-31.2-4.9-57.1-36-57.1c-29.5,0-37,23.4-37,58.1v204.3c0,39.5,8.6,65.5,38.2,65.5
		c30.7,0,36.3-26.6,36.3-63.7v-16.5H769.8z"/>
	<path class="st0" d="M810.2,48.3h41.9v163.1H934V48.3h41.9v393.5H934V249.9h-81.9v191.9h-41.9V48.3z"/>
</g>
<g>
	<path class="st1" d="M1025.4,48.9h109c60.7,0,102.5,23.6,102.5,87.8v19.4c0,48.3-19.4,66.6-41.8,73.6c21.2,8.2,47.1,24.7,47.1,73.1
		v33.6c0,73.6-28.3,104.9-105.5,104.9h-111.3V48.9z M1127.9,196.8c10.6,0,17.1-5.9,17.1-23v-30.6c0-13-2.4-24.7-19.4-24.7h-8.8v78.4
		H1127.9z M1116.7,372.3h8.2c15.9,0,18.9-9.4,18.9-27.1v-54.8c0-18.3-5.3-25.9-21.8-25.9h-5.3V372.3z"/>
	<path class="st1" d="M1367.6,275.7v165.5h-93.1V48.9h116.1c76.6,0,100.7,38.9,100.7,100.7v14.1c0,44.2-14.7,66.6-37.7,78.4
		c28.3,13,35.9,34.8,35.9,91.9c0,47.1-0.6,91.9,1.2,107.2H1400c-4.1-7.1-5.3-34.2-5.3-123.7c0-38.9-3.5-41.8-22.4-41.8H1367.6z
		 M1368.2,206.2h7.1c15.3,0,21.8-5.3,21.8-30v-31.2c0-21.8-5.3-26.5-23.6-26.5h-5.3V206.2z"/>
	<path class="st1" d="M1691.7,273.3h-71.9v90.7h86.6l-10.6,77.2h-169.7V48.9h169.1v77.2h-75.4v70.1h71.9V273.3z"/>
	<path class="st1" d="M1765.3,126.1h-46.5V48.9h186.2v77.2h-46.5v315.2h-93.1V126.1z"/>
</g>
<g>
	<path class="st0" d="M0,200.8c39.5,0,44.8-7.7,44.8-39.5V93.6c0-78.9,44.8-93.1,90.1-93.1h28.9v71.3h-7.7
		c-17.1,0-21.8,6.5-21.8,25.3V166c0,47.1-18.9,67.2-53.6,75.4c33,4.1,53.6,24.7,53.6,72.5v73.6c0,17.1,2.9,28.3,21.8,28.9h7.7v69.5
		h-28.3c-45.4,0-90.7-10-90.7-94.9v-64.8c0-29.5-5.9-37.7-44.8-37.7V200.8z"/>
</g>
<g>
	<path class="st0" d="M2165.9,285.6c-39.5,0-44.8,7.7-44.8,39.5v67.7c0,78.9-44.8,93.1-90.1,93.1h-28.9v-71.3h7.7
		c17.1,0,21.8-6.5,21.8-25.3v-68.9c0-47.1,18.9-67.2,53.6-75.4c-33-4.1-53.6-24.7-53.6-72.5V98.9c0-17.1-2.9-28.3-21.8-28.9h-7.7
		V0.5h28.3c45.4,0,90.7,10,90.7,94.9v64.8c0,29.5,5.9,37.7,44.8,37.7V285.6z"/>
</g>
</svg>
