<?xml version="1.0" encoding="utf-8"?>
<!-- Generator: Adobe Illustrator 25.2.1, SVG Export Plug-In . SVG Version: 6.00 Build 0)  -->
<svg version="1.1" id="Layer_1" xmlns="http://www.w3.org/2000/svg" xmlns:xlink="http://www.w3.org/1999/xlink" x="0px" y="0px"
	 viewBox="0 0 180 48" style="enable-background:new 0 0 180 48;" xml:space="preserve">
<style type="text/css">
	.st0{fill:#fecaca;}
</style>
<g>
	<path class="st0" d="M38.6,29.2v2c0,1.9,0.5,2.8,1.7,2.8c1.3,0,1.6-1.3,1.6-2.6c0-2.7-0.5-3.5-3.4-5.9c-3.2-2.7-4.9-4.3-4.9-8.5
		c0-4.1,1.3-7.8,6.8-7.8c5.7,0,6.6,3.9,6.6,7.2v1.7h-5.2v-1.7c0-1.7-0.3-2.6-1.4-2.6c-1,0-1.3,0.9-1.3,2.5c0,1.7,0.3,2.6,2.7,4.4
		c4.2,3.3,5.7,5.2,5.7,9.9c0,4.5-1.5,8.2-7.2,8.2c-5.4,0-7-3.3-7-7.5v-1.7L38.6,29.2L38.6,29.2z"/>
	<path class="st0" d="M52.6,14.3h-4.2V9.5h13.8v4.9H58V38h-5.5L52.6,14.3L52.6,14.3z"/>
	<path class="st0" d="M69.7,25.6v12.4h-5.5V9.5h7.1c4.8,0,7.1,2.1,7.1,7.1v1c0,4.1-1.6,5.3-2.8,5.9c1.8,0.8,2.6,2.2,2.6,6.1
		c0,2.8,0,6.9,0.2,8.4h-5.3c-0.4-1.3-0.3-5-0.3-8.7c0-3.2-0.4-3.8-2.5-3.8L69.7,25.6L69.7,25.6z M69.7,21.3h0.7
		c1.8,0,2.6-0.6,2.6-3.2v-1.4c0-1.9-0.4-2.9-2.4-2.9h-0.8L69.7,21.3L69.7,21.3z"/>
	<path class="st0" d="M86.4,31.3L85.7,38h-5.6l4-28.6h8.2L96.5,38h-5.7L90,31.3H86.4z M89.5,26.4c-0.4-3.7-1-9.2-1.2-11.9h-0.2
		c-0.1,2-0.8,8.4-1.2,11.9H89.5z"/>
	<path class="st0" d="M99.6,14.3h-4.2V9.5h13.8v4.9h-4.2V38h-5.5V14.3z"/>
	<path class="st0" d="M114.6,31.3l-0.7,6.8h-5.6l4-28.6h8.2l4.1,28.6h-5.7l-0.8-6.8H114.6z M117.7,26.4c-0.4-3.7-1-9.2-1.2-11.9
		h-0.2c-0.1,2-0.8,8.4-1.2,11.9H117.7z"/>
</g>
<g>
	<path class="st0" d="M128.4,9.2v28.6h-1.6V9.2H128.4z"/>
	<path class="st0" d="M133,37.8V9.2h2.1c2,6.6,6.5,22.5,7.1,25.6h0.1c-0.1-4.2-0.2-8.2-0.2-12.8V9.2h1.6v28.6h-2.1
		c-2.2-7.4-6.6-23.2-7.4-26.5h0c0.2,3.4,0.3,8.7,0.3,13.9v12.6L133,37.8L133,37.8z"/>
	<path class="st0" d="M150.9,10.7h-4.7V9.2h10.9v1.5h-4.6v27.1h-1.6V10.7z"/>
	<path class="st0" d="M167.6,23.1h-6.5v13.1h7.3l-0.3,1.5h-8.7V9.2h8.6v1.5h-6.9v10.9h6.5V23.1z"/>
	<path class="st0" d="M171.1,9.2h1.6v27.1h7.2l-0.3,1.5h-8.5L171.1,9.2L171.1,9.2z"/>
</g>
<path class="st0" d="M22.4,18.5c0.7-0.1,1.5-0.3,2.2-1s1.9-0.8,2.8-0.3c1,0.5,1.2,1.6,1.1,2.5c-0.1,0.8-1.1,1.6-2,1.7
	c-0.6,0-1.2-0.2-1.7-0.6c-1.7-1.5-3.2-1.4-4.9,0c-1,0.8-2.3,0.8-3.1-0.1c-0.9-0.9-0.9-2.2-0.1-3.2c1.4-1.6,1.4-3.2,0-4.9
	c-0.8-1-0.8-2.4,0-3.2c0.9-0.8,2.3-0.8,3.2,0c0.8,0.8,0.9,2.2,0.1,3.1c-1.3,1.5-1.4,3.2-0.4,4.6C20.1,18,21.2,18.5,22.4,18.5z"/>
<path class="st0" d="M6.2,27.8c-1,0-1.7,0.4-2.4,1c-0.6,0.5-1.3,0.8-2.1,0.6c-0.9-0.2-1.6-1-1.7-1.8c-0.1-1,0.3-1.9,1.2-2.4
	c0.8-0.4,1.9-0.3,2.5,0.3c0.7,0.7,1.6,1.1,2.6,1.1c0.9,0,1.6-0.3,2.2-0.9c1.1-0.9,2.3-1,3.3-0.1c0.9,0.8,0.8,2.2,0,3.2
	c-1.3,1.6-1.3,3.3,0.1,4.8c0.8,0.9,0.8,2.3-0.1,3.2c-0.9,0.8-2.3,0.8-3.1,0c-0.9-0.9-1-2.3-0.1-3.2c1.8-1.8,1.1-5.1-1.6-5.8
	C6.8,27.8,6.5,27.8,6.2,27.8z"/>
<path class="st0" d="M16.1,24.5c-1.6,1.8-1.7,3.4-0.1,5.2c0.7,0.9,0.7,2.3,0,3c-1.1,1-2.3,1-3.3,0.1c-0.9-0.8-0.9-2.2-0.1-3.1
	c1.7-2,1.4-4.3-0.7-5.5c-1.3-0.7-2.7-0.5-4.1,0.6C6.3,26,4.4,25.4,4,23.7c-0.2-0.9,0.2-1.9,0.9-2.4c0.9-0.5,1.9-0.5,2.6,0.1
	c0.5,0.4,1,0.8,1.6,1c1.3,0.4,2.4,0,3.5-0.8c0.2,0,0.4,0.1,0.6,0.2c0.9,0.6,1.6,1.7,2.6,2.2C16,24.1,16.1,24.3,16.1,24.5z"/>
<path class="st0" d="M16.1,24.5c0-0.2-0.1-0.4-0.2-0.5c-1-0.5-1.7-1.6-2.6-2.2c-0.2-0.1-0.4-0.2-0.6-0.2c1.3-1.8,1.3-3.1-0.1-4.9
	c-0.9-1.1-0.8-2.6,0.4-3.4c0.8-0.5,2.2-0.4,2.9,0.3c0.8,0.7,0.9,1.9,0.3,2.8c-0.1,0.2-0.3,0.3-0.4,0.5c-1.2,1.5-1.2,3.4,0.1,4.7
	c1.3,1.3,3.3,1.3,4.7,0.1c0.6-0.5,1.2-0.9,2-0.7c1.1,0.2,1.7,0.9,1.9,2c0.1,0.8-0.4,1.8-1.1,2.2c-0.8,0.5-1.8,0.4-2.6-0.2
	C19.1,23.5,18,23.4,16.1,24.5z"/>
<path class="st0" d="M20.7,28.1c-2.2,1.4-2.5,3.6-0.8,5.5c0.8,1,0.8,2.3-0.1,3.2c-0.8,0.8-2.2,0.8-3.1,0c-0.9-0.8-0.9-2.2-0.1-3.2
	c1.4-1.6,1.4-3.2,0-4.9c-0.8-1-0.8-2.2,0-3c0.1-0.1,0.1-0.1,0.1-0.1c0.1,0,0.1-0.1,0.2-0.1c0.1,0,0.2,0,0.3-0.1l0,0
	c0.2,0,0.4,0,0.6,0.2C18.8,26.2,19.7,27.3,20.7,28.1z"/>
<path class="st0" d="M11.8,20.7c-0.9,1-2.2,1.1-3.1,0.2c-1.4-1.4-3.7-1.4-5,0c-0.9,0.8-2.1,0.8-3,0c-0.8-0.8-1-2.1-0.3-3
	c0.6-0.9,1.9-1.2,3-0.6c0.5,0.2,0.8,0.7,1.2,0.9C5.7,18.7,6.8,18.7,8,18c0.2-0.1,0.4-0.3,0.6-0.4c0.8,0.7,1.7,1.5,2.5,2.2
	C11.3,20.1,11.9,20.1,11.8,20.7z"/>
<path class="st0" d="M11.8,20.7c0.1-0.6-0.5-0.5-0.8-0.8c-0.8-0.8-1.7-1.5-2.5-2.2c1.4-1.8,1.4-3.1-0.1-5c-0.8-1-0.7-2.3,0.2-3.2
	c0.9-0.8,2.2-0.8,3.1,0c0.9,0.8,0.9,2.2,0.1,3.2c-1.4,1.8-1.4,3.2,0,5C12.6,18.6,12.6,19.7,11.8,20.7z"/>
<path class="st0" d="M20.7,28.1c-1-0.8-1.9-1.9-3-2.7c-0.2-0.1-0.4-0.1-0.6-0.2c0.8-0.5,1.9-0.5,2.5,0.2c1.3,1.4,3.8,1.4,5.1,0
	c0.8-0.8,2.2-0.7,3,0.1c0.8,0.7,0.9,2.1,0.3,3c-0.7,1-1.9,1.2-2.9,0.6c-0.1-0.1-0.3-0.2-0.4-0.3C23.6,27.7,22.2,27.5,20.7,28.1z"/>
<path class="st0" d="M17.2,25.3c-0.1,0.1-0.1,0.1-0.3,0.1C17,25.3,17.1,25.3,17.2,25.3z"/>
<path class="st0" d="M16.7,25.5c-0.1,0.1-0.1,0.1-0.1,0.1C16.7,25.6,16.7,25.6,16.7,25.5z"/>
</svg>
