<?xml version="1.0" encoding="utf-8"?>
<!-- Generator: Adobe Illustrator 25.2.1, SVG Export Plug-In . SVG Version: 6.00 Build 0)  -->
<svg version="1.1" id="Layer_1" xmlns="http://www.w3.org/2000/svg" xmlns:xlink="http://www.w3.org/1999/xlink" x="0px" y="0px"
	 viewBox="0 0 250 250" style="enable-background:new 0 0 250 250;" xml:space="preserve">
<style type="text/css">
	.st0{fill:#DC2626;}
	.st1{fill:#27272A;}
</style>
<path class="st0" d="M83.3,12.7c0.9,0.2,1.7,0.3,2.6,0.6c4.4,1.2,7.3,4.7,7.5,9.6c0.3,8.1,0.3,16.1,0.4,24.2c0,4.2-0.1,8.4-0.1,12.6
	c0,6.7-4,11.3-10.7,11.4c-12.4,0.2-24.8,0.2-37.2,0c-6.3-0.1-10.4-4.5-10.4-10.9c-0.1-12.2-0.1-24.4,0-36.6
	c0-6.2,4.6-10.6,10.9-10.7c1.6,0,3.3-0.1,4.9-0.2c2.1,0,4.2,0,6.2,0c0.3,0.1,0.6,0.1,0.9,0.1c5.8,0,11.6,0,17.5,0
	c0.3,0,0.5-0.1,0.8-0.1C78.8,12.7,81,12.7,83.3,12.7z M86.2,42.1c0-5.5,0-11,0-16.6c0-3.8-1.4-5.2-5.2-5.3c-0.3,0-0.6,0-1,0
	c-8.4,0-16.7,0.1-25.1,0.1c-2.8,0-5.5-0.1-8.3,0c-2.4,0.1-3.6,1.4-3.9,3.8c-0.1,0.6-0.1,1.2-0.1,1.8c0,9.1,0,18.2,0,27.3
	c0,2-0.1,4.1,0,6.1c0.1,2.5,1.3,3.9,3.4,4.2c0.7,0.1,1.4,0.1,2,0.1c4.9,0,9.8-0.1,14.7-0.1c5.9,0,11.8,0,17.7,0.1
	c4,0,5.5-1.4,5.5-5.4C86.2,52.9,86.2,47.5,86.2,42.1z"/>
<path class="st0" d="M13.4,190.6c0.2-0.9,0.3-1.9,0.6-2.8c1.3-4.8,5.2-7.7,10.5-7.7c12.2-0.1,24.5-0.1,36.7,0
	c5.9,0,10.4,4.4,10.5,10.3c0.2,9.9,0.1,19.7,0.1,29.6c0,2.9,0.1,5.8-0.3,8.7c-0.7,5.6-3.9,8.7-9.5,9.4c-0.3,0-0.7,0.2-1,0.2
	c-12.4,0-24.8,0-37.2,0c-0.4-0.1-0.8-0.2-1.2-0.3c-4.4-0.8-7.4-3.2-8.6-7.6c-0.2-0.9-0.4-1.8-0.6-2.7
	C13.4,215.4,13.4,203,13.4,190.6z M64.3,209.1C64.3,209.1,64.3,209.1,64.3,209.1c0-5.6,0.1-11.3,0-16.9c0-3.2-1.7-4.8-4.9-4.8
	c-11.1,0-22.2,0-33.3,0c-3.6,0-5.2,1.6-5.2,5.2c0,2.4,0.1,4.7,0.1,7.1c0,8.7-0.1,17.3-0.1,26c0,3.5,1.6,5.1,5.1,5.1
	c11.1,0,22.1,0,33.2,0c3.4,0,5.1-1.6,5.1-5.1C64.3,220.2,64.3,214.7,64.3,209.1z"/>
<path class="st0" d="M239,143.8c-0.2,1-0.2,2.1-0.5,3.1c-1.1,4.2-4.7,7.4-9.1,7.7c-3.7,0.2-7.4,0.2-11,0.2c-8.6,0-17.3,0-25.9-0.1
	c-1.7,0-3.4-0.2-4.9-0.7c-4-1.3-6.8-5-6.9-9.2c-0.1-9.6,0-19.1,0-28.7c0-3.3-0.1-6.6,0.2-9.8c0.5-5.9,4.4-9.5,10.3-9.8
	c2.4-0.1,4.7-0.1,7.1-0.1c9.4,0,18.9,0,28.3,0.1c1.6,0,3.2,0.2,4.7,0.6c4.6,1.2,7.1,4.6,7.4,9.7c0.1,2,0,4,0,6c0,4.7,0,9.4,0.1,14.2
	c0,0.4,0.1,0.8,0.1,1.2C239,133.4,239,138.6,239,143.8z M209.9,103.9C209.9,103.9,209.9,103.9,209.9,103.9c-5.6,0-11.3-0.1-16.9,0
	c-3.5,0-5.1,1.7-5.1,5.2c0,10.9,0.1,21.8,0.2,32.7c0,0.2,0,0.3,0,0.5c0.1,3.2,1.7,4.9,4.9,5c3.2,0.1,6.4,0,9.6,0
	c5.6,0,11.1,0,16.7,0c2.8,0,5.7,0.1,8.5-0.1c2.1-0.1,3.3-1.5,3.6-3.6c0.1-0.7,0.2-1.5,0.2-2.3c0-2.8-0.1-5.7-0.1-8.5
	c0-7.4,0.1-14.7,0.1-22.1c0-1-0.1-1.9-0.2-2.9c-0.5-3.1-1.4-3.9-4.5-3.9C221.3,103.9,215.6,103.9,209.9,103.9z"/>
<path class="st0" d="M83.8,148.2c0.2-0.4,0.4-1.1,0.7-1.8c0.2-0.5,0.6-0.9,0.8-1.3c1.1-2.2,0.4-3.7-1.9-4.4c-0.1,0-0.2,0-0.2,0
	c-3.3-0.6-4.4-1.8-4.4-5.9c0.1-6.4,0.1-12.9,0-19.3c0-2.4,1-4.1,3.4-4.7c0.7-0.2,1.3-0.3,2-0.5c1.7-0.6,2.3-1.8,1.5-3.5
	c-0.2-0.5-0.5-1-0.8-1.4c-1.4-2.3-1.3-4,0.6-5.9c4.8-4.9,9.7-9.7,14.6-14.6c2-2,3.7-2.1,6.1-0.5c0.2,0.2,0.5,0.3,0.7,0.5
	c2,1.2,3.5,0.6,4.3-1.6c0.1-0.4,0.2-0.9,0.3-1.3c0.6-2.5,1.9-3.5,4.4-3.5c2.2,0,4.5,0.1,6.7,0.1c4.5,0,9-0.1,13.4-0.1
	c2.6,0,4.6,0.3,5.3,4.2c0.6,3,2.4,3.7,5,2.1c2.9-1.9,4.4-1.6,6.8,0.8c4.5,4.5,9,9,13.5,13.5c0.4,0.4,0.7,0.7,1.1,1.1
	c1.4,1.7,1.5,3.3,0.2,5.3c-0.8,1.2-1.4,2.4-1.4,3.9c0,0.7,0.2,1.2,1.1,1.2c1,0.1,1.9,0.3,2.8,0.5c2.3,0.5,3.1,1.4,3.2,3.8
	c0.1,3.6,0,7.2,0,10.8c0,3.5,0.1,7,0.1,10.4c0,3-0.8,4.1-3.8,4.8c-0.4,0.1-0.8,0.2-1.1,0.3c-2.1,0.7-2.6,2.1-1.6,4
	c0.3,0.5,0.6,0.9,0.9,1.4c1.1,1.8,1.1,3.4-0.4,4.9c-1.6,1.7-3.4,3.3-5,5c-3.2,3.3-6.5,6.5-9.7,9.8c-2,2.1-3.9,2.8-6.4,0.9
	c-0.4-0.3-0.9-0.5-1.4-0.7c-1.7-0.6-2.9-0.1-3.6,1.5c-0.2,0.5-0.3,1-0.5,1.5c-0.6,2.8-1.7,3.7-4.6,3.7c-3.2,0-6.4-0.1-9.6-0.1
	c-3.6,0-7.2,0.1-10.8,0.1c-3.1,0-4.1-0.8-4.8-3.8c-0.1-0.5-0.3-1-0.5-1.5c-0.7-1.6-2-2.1-3.6-1.4c-0.5,0.2-1.1,0.6-1.6,0.9
	c-2.2,1.4-3.7,1.3-5.6-0.6c-1.8-1.8-3.5-3.6-5.3-5.4c-2.9-2.9-5.8-5.7-8.7-8.6C85,151.5,83.8,150.4,83.8,148.2z M86.4,117.3
	c0,4.9,0,9.7,0,14.5c0,1.4,0.9,2.3,2.1,2.8c3.6,1.4,4.9,4.5,5.5,7.9c0.1,0.7-0.1,1.4-0.4,2.1c-1.1,2.5-0.9,3.9,1,5.8
	c2.4,2.4,4.7,4.7,7.1,7.1c1.5,1.5,2.6,1.7,4.6,0.9c0.7-0.3,1.5-0.5,2.2-0.5c2.3,0,4.5,0.7,6.4,2c0.6,0.4,1.3,1.2,1.5,1.9
	c1.1,2.9,2.2,3.7,5.3,3.7c3.4,0,6.8,0,10.2,0c1.5,0,2.6-0.6,3.2-2.1c1.3-3.3,4-4.8,7.2-5.4c1.1-0.2,2.3,0,3.3,0.4
	c2.2,0.8,3.5,0.6,5.2-1c2.5-2.5,4.9-5,7.4-7.5c1.3-1.2,1.5-2.6,0.8-4.3c-0.4-0.9-0.6-1.9-0.5-2.8c0.3-1.8,0.8-3.5,1.4-5.2
	c0.4-1.3,1.4-2.1,2.8-2.5c1.9-0.5,3.1-1.9,3.2-3.9c0.1-4.1,0-8.2,0-12.2c0-1.3-0.7-2.1-2-2.3c-2.6-0.5-3.8-2.1-4.3-4.6
	c-0.1-0.4-0.1-0.9-0.3-1.1c-1.7-2-1.5-3.9-0.2-5.9c0.8-1.3,0.5-2.3-0.5-3.3c-1.9-1.9-3.8-3.9-5.6-5.8c-1.2-1.3-2.4-2.6-4.2-3.1
	c-0.8-0.2-1.9-0.5-2.6-0.1c-2.9,1.5-8.9,0.5-10.3-3.5c-0.9-2.4-2.9-3.5-5.5-3.5c-3.3,0-6.6,0-9.8,0c-2,0-3,0.7-3.7,2.6
	c-0.2,0.6-0.4,1.2-0.9,1.7c-2,2-4.3,3.2-7.2,3.4c-0.6,0-1.3-0.2-1.8-0.4c-2.3-1-3.8-0.9-5.6,0.9c-2.7,2.6-5.3,5.3-7.9,8
	c-0.8,0.8-1.1,1.8-0.8,3c0.1,0.5,0.3,0.9,0.4,1.4c1.1,5.2-0.7,8.6-5.6,10.6C87.2,117,86.7,117.2,86.4,117.3z"/>
<path class="st1" d="M207.4,181.2c-2.1,2.4-3.9,4.6-5.8,6.8c-7.4,8.4-15.3,16.1-25,21.9c-11.4,6.8-23.7,11.1-36.8,12.9
	c-15.2,2.1-30.1,1-44.7-3.9c-2.5-0.8-4.9-1.8-7.4-2.8c-2.1-0.9-2.5-2-1.6-4.1c0.1-0.3,0.2-0.5,0.4-0.8c1.3-2.6,2.4-3,5.1-2
	c7.1,2.9,14.5,5,22.1,6.2c15.7,2.4,30.9,0.5,45.6-5.5c11.7-4.7,22.3-11.3,31.1-20.5c3.1-3.2,5.9-6.8,8.7-10.2c0.5-0.6,1-1.3,0.4-2.2
	c-0.6-0.8-1.3-1-2.2-0.7c-4.3,1-8.5,2.1-12.8,3.1c-0.5,0.1-1,0.3-1.5,0.3c-1,0.1-1.6-0.4-1.9-1.3c-0.3-1.3-0.7-2.5-0.9-3.8
	c-0.3-1.3,0.3-2.1,2-2.5c2.9-0.7,5.8-1.3,8.6-2.1c6.6-1.7,13.2-3.3,19.9-5c2-0.5,2.6-0.1,2.9,1.9c1.2,9.2,2.4,18.5,3.5,27.7
	c0.1,0.5,0.1,1,0.1,1.6c0,1.4-0.7,2-2.1,2c-0.9,0-1.7,0.1-2.6,0.3c-1.7,0.3-2.5-0.2-2.7-1.9c-0.5-3.5-0.9-7-1.4-10.6
	C207.9,184.5,207.6,183,207.4,181.2z"/>
<path class="st1" d="M121.8,35.6c2.5,1.7,5,3.3,7.4,5c0.3,0.2,0.6,0.4,0.9,0.6c1.4,1,1.6,1.9,0.7,3.3c-0.5,0.8-1.1,1.7-1.7,2.5
	c-1,1.4-1.8,1.7-3.3,0.7c-1.8-1.1-3.5-2.4-5.3-3.6c-5.6-3.7-11.2-7.5-16.7-11.2c-0.2-0.1-0.3-0.2-0.5-0.3c-1.6-1.1-1.6-1.9,0-3
	c6.6-4.4,13.2-8.8,19.9-13.2c1-0.7,2-1.4,3.1-2c1.3-0.7,2-0.5,2.8,0.7c0.5,0.8,1.1,1.7,1.6,2.5c1.1,1.5,1,2.3-0.6,3.4
	c-2.4,1.7-4.8,3.4-7.1,5c-0.3,0.2-0.6,0.5-0.9,0.8c0,0.1,0,0.3,0.1,0.4c1.5,0,3.1,0,4.6,0c25.4,0.8,47.7,9.4,66.5,26.6
	c6.8,6.2,12.3,13.4,17.1,21.2c0.6,1.1,1.4,2.1,2,3.1c0.8,1.3,0.6,2.3-0.7,3.2c-0.9,0.6-1.8,1-2.8,1.4c-1.5,0.5-2.6,0-3.7-1.5
	c-1.4-2.1-2.7-4.2-4.1-6.3c-11-16-25.1-27.9-43.5-34.4c-9.3-3.3-18.9-5-28.7-5.5c-1.8-0.1-3.6-0.1-5.4-0.1c-0.6,0-1.1,0.2-1.7,0.3
	C121.8,35.3,121.8,35.5,121.8,35.6z"/>
<path class="st1" d="M33,158.8c0.8-0.4,0.8-1,0.6-1.7c-2.8-8.2-4.7-16.5-5.4-25.1c-0.5-6.1-0.4-12.1,0.7-18.2
	c0.8-4.5,1.2-9,2.4-13.4c1.2-4.7,3.1-9.3,4.8-13.9c0.7-2,1.7-2.3,3.6-1.4c0.7,0.3,1.4,0.6,2.1,0.9c1.8,0.8,2.1,1.6,1.3,3.4
	c-1.1,2.7-2.2,5.3-3.1,8c-6.4,19.5-5.9,38.8,1.2,58c0.1,0.2,0.1,0.4,0.2,0.6c0,0.1,0.1,0.1,0.4,0.5c0.8-2.9,1.6-5.6,2.3-8.2
	c0.5-2,0.8-4,1.2-6c0.5-2.2,1.4-2.8,3.7-2.6c0.2,0,0.4,0,0.6,0.1c3.2,0.6,3.9,1.6,3.1,4.8c-2.1,8.8-4.2,17.6-6.3,26.4
	c0,0.2-0.1,0.3-0.1,0.5c-0.6,2.4-1.5,2.8-3.7,1.6c-8.3-4.6-16.7-9.2-25-13.7c-1.9-1-2.1-1.9-1.1-3.8c0.3-0.6,0.6-1.2,1-1.8
	c1-2,2.1-2.2,4-1.2c2.6,1.5,5.3,3,8,4.4C30.6,157.6,31.8,158.2,33,158.8z"/>
<path class="st0" d="M52.6,43.2c0.7,0.5,1.3,0.9,1.7,1.4c2.4,2.9,3.2,2.9,5.8,0.2c4.2-4.3,8.4-8.5,12.7-12.8
	c0.7-0.7,1.4-1.5,2.1-2.1C76,29,77.1,29,78.2,30c0.6,0.5,1.1,1.1,1.6,1.6c1.4,1.7,1.3,2.7-0.2,4.3c-1.6,1.6-3.3,3.2-5,4.9
	c-5,5-10,10-15,15c-0.4,0.4-0.7,0.7-1.1,1.1c-1.1,1-1.7,1-2.8,0c-1.9-1.9-3.8-3.8-5.7-5.7c-0.5-0.5-0.9-1-1.2-1.6
	c-0.9-1.5-0.7-3.1,0.6-4.2C50.4,44.5,51.4,43.9,52.6,43.2z"/>
<path class="st0" d="M59.1,201c-0.3,0.5-0.7,1.3-1.2,1.9c-1.5,1.5-3,3-4.5,4.5c-5.4,5.4-10.8,10.9-16.3,16.3c-1.3,1.3-2,1.3-3.3,0.1
	c-2.3-2.2-4.5-4.4-6.7-6.7c-1.3-1.3-1.3-2.4,0-3.7c0.7-0.7,1.4-1.4,2.3-2c1.3-0.9,2.3-0.8,3.4,0.4c0.4,0.4,0.7,0.9,1.1,1.3
	c0.9,1,1.7,1.1,2.7,0.3c0.8-0.6,1.4-1.4,2.1-2.1c4.5-4.6,9.1-9.1,13.6-13.7c1.7-1.7,2.8-1.7,4.6-0.2C57.9,198.4,58.8,199.3,59.1,201
	z"/>
<path class="st0" d="M198.2,127.1c0.6,0.4,1.2,0.8,1.7,1.3c2.1,2.4,3.1,2.4,5.3,0.1c4.8-4.9,9.6-9.7,14.4-14.6
	c1.7-1.7,2.9-1.7,4.6,0.1c0,0,0.1,0.1,0.1,0.1c2.6,2.7,2.5,3.6-0.1,6.2c-6.4,6.2-12.6,12.6-19,18.8c-0.5,0.5-0.9,0.9-1.4,1.3
	c-0.9,0.9-1.7,0.7-2.5,0c-2.3-2.2-4.7-4.5-6.9-6.8c-1.1-1.2-1.2-2.4-0.2-3.7c0.7-0.8,1.6-1.6,2.4-2.3
	C196.9,127.5,197.5,127.4,198.2,127.1z"/>
<path class="st1" d="M126.2,154.8c-16,0-29.4-13.2-29.2-29c0.3-18.2,14.5-29.7,29.8-29.5c15.5,0.1,28.7,14.3,28.6,29.6
	C155.4,141.7,142.2,154.8,126.2,154.8z M126.3,147.3c1.2-0.1,2.4-0.2,3.6-0.4c10.3-1.6,20.1-12.3,17.7-23.9
	c-1.3-6.5-4-12.3-10.1-15.9c-9.2-5.5-19.2-4.1-26.6,3.6c-4.2,4.3-6.5,9.4-6.4,15.4C104.8,137.6,114.7,147.2,126.3,147.3z"/>
<path class="st1" d="M126.2,140.2c-8.3,0-14.6-6.4-14.6-14.7c0-8.1,6.6-14.6,14.8-14.6c7.8,0,14.4,6.8,14.4,14.8
	C140.9,133.7,134.3,140.2,126.2,140.2z M126.3,132.7c3.6,0,7.1-3.5,7.1-7.1c0-3.6-3.6-7.2-7.2-7.2c-3.7,0-7.2,3.5-7.2,7.2
	C119.1,129.2,122.6,132.7,126.3,132.7z"/>
</svg>
