<?xml version="1.0" encoding="utf-8"?>
<!-- Generator: Adobe Illustrator 25.2.1, SVG Export Plug-In . SVG Version: 6.00 Build 0)  -->
<svg version="1.1" id="Layer_1" xmlns="http://www.w3.org/2000/svg" xmlns:xlink="http://www.w3.org/1999/xlink" x="0px" y="0px"
	 viewBox="0 0 20 20" style="enable-background:new 0 0 20 20;" xml:space="preserve">
<path d="M10.5,20c-0.4,0-0.8,0-1.3,0c0,0-0.1,0-0.1,0c-0.3,0-0.6-0.1-1-0.1c-2.5-0.4-4.5-1.6-6.1-3.5c-2-2.4-2.6-5.2-2.1-8.2
	C0.5,6,1.4,4.2,3,2.8c2.8-2.6,6-3.4,9.7-2.4c1.3,0.4,2.5,1.1,3.6,1.9c0,0,0,0.1,0,0.1c0,0.2-0.1,0.3-0.2,0.4
	c-0.8,0.8-1.6,1.6-2.4,2.4c-0.2,0.2-0.3,0.2-0.6,0.1c-1.3-0.9-2.7-1.2-4.3-1C6.1,4.8,4.2,7,4,9.7c-0.1,1.7,0.5,3.2,1.7,4.4
	c1.4,1.4,3,1.9,4.9,1.6c2.1-0.3,3.6-1.5,4.5-3.4c0,0,0-0.1,0-0.1c-0.1,0-0.1,0-0.2,0c-1.7,0-3.4,0-5,0c-0.4,0-0.4-0.1-0.4-0.4
	c0-1.1,0-2.1,0-3.2c0-0.3,0.2-0.5,0.5-0.5c3.1,0,6.3,0,9.4,0c0,0,0.1,0,0.1,0c0.2,0,0.3,0.1,0.3,0.3c0,0.1,0,0.3,0.1,0.4
	c0,0.3,0.1,0.6,0.1,0.8c0,0.3,0,0.6,0,0.8c0,0,0,0.1,0,0.1c0,0.4-0.1,0.8-0.1,1.1c-0.4,2.1-1.3,3.9-2.9,5.4
	c-1.6,1.6-3.5,2.5-5.7,2.8C11,20,10.7,20,10.5,20z"/>
</svg>
