<?xml version="1.0" encoding="utf-8"?>
<!-- Generator: Adobe Illustrator 25.2.1, SVG Export Plug-In . SVG Version: 6.00 Build 0)  -->
<svg version="1.1" id="Layer_1" xmlns="http://www.w3.org/2000/svg" xmlns:xlink="http://www.w3.org/1999/xlink" x="0px" y="0px"
	 viewBox="0 0 250 250" style="enable-background:new 0 0 250 250;" xml:space="preserve">
<style type="text/css">
	.st0{fill:#27272A;}
	.st1{fill:#DC2626;}
</style>
<path class="st0" d="M124.4,240.8c-5.2,0-10.5,0.2-15.7-0.1c-6.2-0.3-10.2-4.1-12.4-9.7c-0.8-2-1.1-4.2-1.2-6.3
	c-0.1-6.6,0-13.2,0-19.8c0-9.7-3.5-17.9-10.2-24.7c-2.6-2.7-5.6-5-8.3-7.6c-9-8.6-15.2-19-18-31.1c-3.7-15.8-3.3-31.5,4.4-46.2
	c10.3-19.5,25.7-32.9,47.6-37.3c26.1-5.3,48.1,2.5,65.6,22.7c7.2,8.3,12.2,17.9,14.6,28.7c2,9.1,1.8,18.3,0.2,27.5
	c-1.7,10.3-5.5,19.7-11.9,27.9c-2.9,3.8-6.3,7.2-10,10.3c-6.3,5.1-11.3,11.2-13.8,19c-1.6,4.9-2,10-1.8,15.2
	c0.2,5.7,0.5,11.4-0.2,17.1c-0.5,4.8-2.2,8.9-6.2,11.8c-2.9,2.2-6.3,2.6-9.8,2.6C132.9,240.9,128.6,240.9,124.4,240.8
	C124.4,240.9,124.4,240.8,124.4,240.8z M124.2,201.9c5.2,0,10.5,0,15.7,0c2.8,0,3.8-0.9,4.2-3.7c1.5-10.4,5.9-19.3,13.9-26.4
	c2.8-2.5,5.6-4.9,8.1-7.6c8.2-9.1,14.2-19.2,15.6-31.7c0.7-5.8,0.9-11.5,0-17.2c-2.2-13.3-8.3-24.6-18.3-33.5
	c-15.4-13.7-33.3-18.5-53.4-13.4C99.1,71.2,90,77,82.5,85.2c-13.7,14.9-19.2,32.3-14.8,52.2c2.9,13.6,10.4,24.5,21.3,33.1
	c9.1,7.1,14.4,16.3,15.7,27.8c0.3,2.7,1.3,3.6,4,3.6C113.8,201.9,119,201.9,124.2,201.9z M124.4,230.9c4.7,0,9.4,0,14,0
	c3.2,0,4.8-1.5,4.9-4.6c0.1-3.9,0.1-7.8,0.1-11.7c0-1.9-0.8-2.6-2.6-2.7c-1.4,0-2.9,0.1-4.3,0.1c-5.9,0-11.8,0-17.7,0
	c-3.7,0-7.4-0.1-11-0.1c-1.9,0-2.7,0.7-2.7,2.5c0,3.9,0,7.8,0.2,11.7c0.2,3.4,1.8,4.8,5.1,4.8C115,230.9,119.7,230.9,124.4,230.9z"
	/>
<path class="st1" d="M45.3,40.7c1.4-0.1,2.6,0.5,3.7,1.6c4.2,4.2,8.4,8.4,12.5,12.5c1.4,1.4,2.6,3,2.1,5.2c-0.6,2.2-2,3.8-4.1,4.5
	c-2,0.7-3.6-0.3-4.9-1.7c-4.4-4.6-8.7-9.3-13-13.9c-1.5-1.6-1.6-3.6-0.7-5.6C41.8,41.4,43.2,40.6,45.3,40.7z"/>
<path class="st1" d="M119.3,22.8c0-2.8,0-5.7,0-8.5c0-0.5,0-1,0-1.4c0.2-3.1,1.8-4.7,4.9-4.7c3,0,4.9,1.6,4.9,4.7
	c0.1,6.6,0.1,13.3,0,19.9c0,3-2,4.7-5,4.7c-3-0.1-4.8-1.7-4.8-4.8C119.3,29.3,119.3,26,119.3,22.8C119.3,22.8,119.3,22.8,119.3,22.8
	z"/>
<path class="st1" d="M226.1,119.7c3.3,0,6.5,0,9.8,0c3,0,4.6,1.7,4.6,4.6c0,3.2-1.5,5-4.5,5c-6.7,0.1-13.3,0.1-20,0
	c-1.8,0-3.4-0.6-4.1-2.4c-0.8-1.9-0.8-3.8,0.4-5.6c0.8-1.3,2.2-1.7,3.7-1.7C219.3,119.7,222.7,119.7,226.1,119.7z"/>
<path class="st1" d="M202.7,208c-2,0.1-3.7-0.7-5.2-2.2c-3.8-3.8-7.6-7.7-11.4-11.5c-0.3-0.3-0.7-0.7-1-1c-1.9-2.4-1.9-4.8,0.2-6.9
	c2-2,4.6-2,6.8,0c3,2.9,5.9,5.8,8.9,8.8c1.6,1.6,3.2,3.2,4.8,4.9c1.8,1.9,1.8,4.8,0.1,6.8C205,207.9,203.9,208.2,202.7,208z"/>
<path class="st1" d="M207,46.7c0.1,1.4-0.6,2.6-1.6,3.6c-4.1,4.1-8.1,8.2-12.2,12.2c-0.8,0.7-1.7,1.3-2.7,1.8
	c-2.1,1-4.2,0.4-5.8-1.5c-1.4-1.6-1.4-3.5-0.1-5.4c0.7-1,1.5-1.8,2.4-2.7c3.7-3.7,7.4-7.3,11-11c1.7-1.8,3.7-2.7,6.1-1.6
	C206.1,42.9,207.1,44.4,207,46.7z"/>
<path class="st1" d="M63.5,190.2c0.1,1.6-0.8,2.7-1.8,3.7c-1.8,1.9-3.7,3.7-5.5,5.5c-2.3,2.3-4.5,4.5-6.8,6.8
	c-2.4,2.3-5.1,2.5-7.4,0.6c-1.9-1.6-2.3-3.6-1-5.7c0.5-0.8,1.2-1.6,1.9-2.3c4-4,8.1-8.1,12.1-12.1c1.2-1.2,2.6-1.9,4.3-1.7
	C62.1,185.5,63.5,187.2,63.5,190.2z"/>
<path class="st1" d="M126.5,80.8c18.9,0.5,35.3,14.3,39.7,33.1c0.7,3.1,1.1,6.4,1.6,9.6c0.1,0.8,0,1.7-0.2,2.5
	c-0.5,2.2-2.1,3.4-4.7,3.4c-2.6,0-4.3-1.1-4.8-3.5c-0.3-1.6-0.3-3.3-0.5-4.9c-1.4-14.3-13-27-27.1-29.6c-1.8-0.3-3.7-0.5-5.6-0.7
	c-0.6-0.1-1.1-0.1-1.7-0.2c-4.7-0.9-4.6-4.5-3.5-7.3c0.6-1.6,2.1-2.1,3.7-2.3C124.5,80.8,125.5,80.8,126.5,80.8z"/>
<path class="st1" d="M22.5,119.6c3.3,0,6.5,0,9.8,0c3,0,4.6,1.7,4.6,4.6c0,3.2-1.5,5-4.5,5c-6.7,0.1-13.3,0.1-20,0
	c-1.8,0-3.4-0.6-4.1-2.4c-0.8-1.9-0.8-3.8,0.4-5.6c0.8-1.3,2.2-1.7,3.7-1.7C15.7,119.6,19.1,119.6,22.5,119.6z"/>
</svg>
