<?xml version="1.0" encoding="utf-8"?>
<!-- Generator: Adobe Illustrator 25.2.1, SVG Export Plug-In . SVG Version: 6.00 Build 0)  -->
<svg version="1.1" id="Layer_1" xmlns="http://www.w3.org/2000/svg" xmlns:xlink="http://www.w3.org/1999/xlink" x="0px" y="0px"
	 viewBox="0 0 250 250" style="enable-background:new 0 0 250 250;" xml:space="preserve">
<style type="text/css">
	.st0{fill:#27272A;}
	.st1{fill:#DC2626;}
</style>
<path class="st0" d="M18.7,236.5c0.2-1.3,0.3-2.5,0.6-3.8c1.2-5.6,4.7-8.7,10.7-9.3c1.8-0.2,3.7-0.2,5.5-0.3c0.2,0,0.4,0,0.6,0
	c3.7,0,4.9-1.3,4.9-4.9c0-5-0.1-9.9-0.1-14.9c0-14.5,0-29.1,0-43.6c0-3.3,0-6.5,0.1-9.8c0.1-4.9,1.7-6.7,6.6-6.7
	c8.8-0.1,17.6,0,26.4,0c0.8,0,1.6,0.1,2.3,0.3c2.2,0.5,3.4,1.7,3.7,4c0.2,1,0.3,2,0.3,3c0,19.1,0.1,38.2,0.1,57.3
	c0,3.4-0.1,6.9-0.1,10.3c0,4.3,1.3,5.3,5.6,5.1c3.8-0.2,7.6,0,11.3-0.1c0.4,0,0.9,0.1,1.3,0c1.9-0.1,2.9-0.9,2.9-2.8
	c0.1-3,0.1-6,0.1-9c0-0.4,0-0.7,0-1.1c0-14.3,0-28.5,0-42.8c0-16.1,0.1-32.3,0.2-48.4c0-3-0.2-5.9,0-8.9c0.2-3.2,1.6-4.6,4.8-4.9
	c1.5-0.2,3-0.3,4.4-0.3c7.6,0,15.3,0,22.9,0c0.8,0,1.6,0,2.4,0.2c3.1,0.5,4.6,2.1,4.7,5.3c0.1,4.2,0,8.3,0,12.5
	c0,9.5,0.1,19,0.1,28.5c0,3.5,0.1,7.1,0.1,10.6c0,14.2,0,28.5,0,42.7c0,4.5-0.1,9-0.1,13.6c0,3.8,1.2,4.9,5,4.8
	c3.9-0.1,7.8,0,11.7,0c0.3,0,0.6,0,0.9,0c2.2,0,3.3-1,3.4-3.3c0.1-2.2,0-4.4,0-6.5c0-27.7,0-55.4,0-83.1c0-8.3,0.1-16.7,0.1-25
	c0-8.7-0.1-17.4-0.1-26.1c0-0.2,0-0.5,0-0.7c0-4.3,1.9-6.2,6.1-6.4c1.9-0.1,3.8-0.1,5.7-0.1c6.9,0,13.8,0,20.7,0c0.3,0,0.5,0,0.8,0
	c4.2,0.2,6.1,2.1,6.1,6.4c0,11.5,0.1,22.9,0.1,34.4c0,0.9-0.1,1.9-0.3,2.8c-0.5,1.9-1.7,2.8-3.7,2.7c-1.9-0.1-3.1-1-3.5-3
	c-0.2-0.9-0.2-1.9-0.2-2.8c0-7.7,0-15.4,0-23c0-1.8,0.1-3.7,0.1-5.5c0-0.6,0-1.2-0.1-1.9c-0.3-1.7-1-2.4-2.7-2.4
	c-2.2,0-4.4,0.1-6.7,0.1c-3.5,0-7-0.1-10.5-0.1c-0.6,0-1.3,0-1.9,0.1c-1.1,0.2-1.9,0.8-2.2,2c-0.1,0.8-0.2,1.5-0.2,2.3
	c0,11.7-0.1,23.4-0.1,35.1c0,27.6,0.1,55.3,0.1,82.9c0,5.3,0,10.6,0,15.9c0,4.2,1.3,5.3,5.5,5.2c4.4-0.1,8.7-0.1,13.1,0
	c4.4,0.1,5.7-1,5.7-5.4c0-28-0.1-56.1-0.1-84.1c0-0.9,0.1-1.9,0.2-2.8c0.3-1.7,1.5-2.8,3.3-2.9c2-0.1,3.4,0.7,3.9,2.5
	c0.3,1.1,0.4,2.3,0.4,3.5c0,27.6,0,55.1,0,82.7c0,1.1,0.1,2.2,0.1,3.3c0.2,1.9,0.8,2.7,2.7,2.9c2.2,0.2,4.5,0.2,6.8,0.4
	c3.9,0.3,7.4,1.5,9.8,4.9c1.5,2.1,2.1,4.5,2.5,7c0.4,2.8,0.3,5.5-0.3,8.3c-0.9,4.2-3.3,6.3-7.5,6.8c-0.3,0-0.5,0.1-0.8,0.2
	c-39.1,0-78.1,0-117.2,0c-0.2-0.1-0.3-0.2-0.5-0.2c-2.2-0.5-3.1-1.6-3.2-3.6c0-2,1-3.3,3.1-3.8c0.8-0.2,1.6-0.2,2.4-0.2
	c36.7,0,73.5,0,110.2,0c1,0,1.9,0,2.9,0c2.1,0,3.1-0.9,3.3-3c0.1-1.3,0-2.7-0.2-4c-0.5-3.4-1.8-4.5-5.2-4.8c-0.5,0-1-0.1-1.5-0.1
	c-58.3,0-116.5,0-174.8-0.1c-1,0-2,0.1-3,0.2c-1.7,0.3-3.3,1-4,2.7c-0.9,2.1-1.1,4.4-0.8,6.7c0.1,1,0.8,1.7,1.8,1.9
	c1.1,0.2,2.2,0.4,3.4,0.4c15.6,0,31.2,0,46.8,0c1.1,0,2.3,0.1,3.4,0.3c1.9,0.4,2.8,1.8,2.7,3.7c-0.1,2-0.8,2.8-3.4,3.7
	c-17.5,0-34.9,0-52.4,0c-0.5-0.1-1-0.2-1.5-0.2c-4.4-0.4-7.1-2.9-7.9-7.2c-0.2-1-0.3-2.1-0.5-3.1C18.7,238.7,18.7,237.6,18.7,236.5z
	 M109,169.3C109,169.3,109,169.3,109,169.3c-0.1,15.1-0.1,30.3-0.1,45.4c0,1.9,0,3.7,0.2,5.6c0.2,2,1.3,2.8,3.3,2.9c0.5,0,1,0,1.5,0
	c2.6-0.1,5.2-0.1,7.8-0.1c3.2,0,6.3,0,9.5,0c0.8,0,1.6-0.2,1.9-1.1c0.1-0.5,0.2-1.1,0.2-1.6c0.1-14.5,0.1-29.1,0.1-43.6
	c0-8.9,0.1-17.9,0.1-26.8c0-11.3-0.1-22.7-0.2-34c0-2.5-1-3.4-3.5-3.4c-3.6,0.1-7.2,0.2-10.9,0.2c-2.1,0-4.1-0.3-6.2-0.2
	c-2.6,0.1-4,1.6-4,4.3c0,1,0.2,1.9,0.2,2.9c0.1,8.1,0.1,16.1,0.1,24.2C109.1,152.4,109,160.9,109,169.3z M72.8,187.3
	c0-10.2,0-20.4,0-30.6c0-1.1,0.1-2.3,0-3.4c-0.1-1.5-0.8-2.2-2.4-2.4c-0.5-0.1-0.9-0.1-1.4-0.1c-5.6,0-11.2,0-16.8,0
	c-2.6,0-3.5,0.8-3.7,3.4c0,0.3,0,0.7,0,1.1c0,5.7,0.1,11.5,0.1,17.2c0,14.5,0,29,0,43.5c0,1.4-0.1,2.7,0,4.1c0.2,2.5,1,3.2,3.5,3.2
	c5.5,0,11-0.1,16.5-0.1c3.6,0,4.3-0.6,4.3-4.3C72.8,208.3,72.8,197.8,72.8,187.3z"/>
<path class="st1" d="M235.8,33c-1.2,0.5-2.5,1-3.7,1.6c-2.9,1.5-5.9,1.3-8.9,0.4c-1.7-0.5-2.4-1.7-2.3-3.6c0.1-1.8,0.9-3.1,2.6-3.2
	c2.7-0.2,5.4-0.2,8,0.2c1.4,0.2,2.6,1.5,4,2.3c0,0,0.2-0.2,0.3-0.4C235.8,31.1,235.8,32,235.8,33z"/>
<path class="st0" d="M18.7,239.8c0.1,1,0.3,2.1,0.5,3.1c0.8,4.3,3.5,6.8,7.9,7.2c0.5,0,1,0.2,1.5,0.2c-3.3,0-6.6,0-9.8,0
	C18.7,246.8,18.7,243.3,18.7,239.8z"/>
<path class="st0" d="M181.8,0.4c2.7,0,4.7,1.5,5.8,4.2c0.8,1.9,1.6,3.8,2.6,5.6c3.1,5.4,7.9,8.2,14,9c1.2,0.2,2.4,0.2,3.6,0.3
	c3.1,0.1,5.3,1.6,6.1,4.3c0.8,2.6,0,5.2-2.4,7c-3.9,3-7,6.5-8.3,11.4c-1.1,4.2-0.6,8.3,0.5,12.3c1,3.8-0.7,7.1-4,8.1
	c-2,0.6-3.8,0.1-5.5-1.1c-2.8-1.9-5.7-3.5-9.1-4.1c-4.6-0.9-8.9,0.1-12.9,2.3c-1,0.5-1.9,1.1-2.8,1.7c-4.3,3.2-9.1,0.6-9.7-4.3
	c-0.3-2.2,0-4.4,0.3-6.6c0.2-1.8,0.6-3.6,1.1-5.4c0.9-3.2-0.1-5.7-2.5-7.8c-2.3-2-4.5-4.2-6.7-6.4c-1.5-1.5-2.4-3.4-2.4-5.7
	c0-3.3,2.3-5.6,5.6-5.8c2.4-0.2,4.8-0.3,7.1-0.8c6.2-1.5,10.1-5.6,12.6-11.2c0.4-1,0.8-2,1.2-3C176.9,1.8,179,0.3,181.8,0.4z
	 M158.7,26.9c10.3,6.5,13,15.3,8.1,26.7c1.5-0.6,2.6-0.9,3.7-1.4c2.2-1.1,4.3-2.3,6.5-3.4c3.1-1.6,6.3-1.6,9.4,0c1.8,1,3.6,2,5.4,3
	c1.2,0.6,2.4,1,3.8,1.6c0-0.8,0.1-1.2,0-1.7c-0.3-2.1-0.6-4.3-1.1-6.3c-1.4-5.2-0.1-9.4,4.1-12.7c1.2-0.9,2.3-2,3.4-3.1
	c0.8-0.8,1.5-1.8,2.3-3c-0.9-0.2-1.5-0.4-2.1-0.5c-2-0.3-4-0.6-6-0.7c-4.8-0.4-8.3-2.5-10.3-7c-1.1-2.4-2.2-4.7-3.4-7.1
	c-0.3-0.6-0.8-1.2-1.2-1.9C177.2,22.6,173.4,25.5,158.7,26.9z"/>
<path class="st1" d="M135.8,35.6c-1.3-0.1-2.5-0.1-3.7-0.3c-1.8-0.3-3.2-2-3.2-3.7c0-1.8,1.3-3.4,3.2-3.5c2.5-0.2,5-0.2,7.4,0
	c1.8,0.1,3,1.7,3,3.4c0,1.7-1.3,3.5-3.1,3.7C138.3,35.5,137,35.5,135.8,35.6z"/>
<path class="st1" d="M143.2,18.4c-0.8-0.4-2.3-0.8-3.6-1.6c-1.3-0.8-2.4-1.8-3.5-2.9c-1.4-1.4-1.5-2.9-0.6-4.3
	c0.8-1.3,2.6-2.1,4.2-1.6c3.2,1,5.8,2.8,7.6,5.6C148.6,15.7,146.6,18.5,143.2,18.4z"/>
<path class="st1" d="M219.1,18.3c-1.5,0-2.5-0.7-3.2-2c-0.6-1.3-0.5-2.6,0.5-3.6c2.1-2.4,4.8-4,7.9-4.7c1.4-0.3,2.6,0.3,3.4,1.4
	c0.8,1.2,0.9,2.5,0.2,3.8C226.5,15.6,221.9,18.3,219.1,18.3z"/>
<path class="st1" d="M228.5,51c-0.1,2.5-2,4.1-4.5,3.6c-3.3-0.7-5.9-2.5-7.8-5.2c-1.4-1.9-0.1-4.7,2.2-5c0.8-0.1,1.7-0.1,2.4,0.1
	c2.7,0.8,5,2.4,6.7,4.7C228,49.7,228.2,50.4,228.5,51z"/>
<path class="st1" d="M147.8,48c-0.3,0.6-0.5,1.2-0.9,1.7c-1.9,2.4-4.3,4.1-7.2,4.8c-2.3,0.6-4.3-0.6-4.6-2.8
	c-0.1-0.7,0.1-1.7,0.6-2.3c1.7-2.5,4.1-4.1,7-5C145.5,43.7,147.7,45.3,147.8,48z"/>
</svg>
